<?xml version="1.0" encoding="UTF-8" standalone="no"?>
<!DOCTYPE svg PUBLIC "-//W3C//DTD SVG 1.1//EN" "http://www.w3.org/Graphics/SVG/1.1/DTD/svg11.dtd">
<svg width="100%" height="100%" viewBox="0 0 367 414" version="1.1" xmlns="http://www.w3.org/2000/svg" xmlns:xlink="http://www.w3.org/1999/xlink" xml:space="preserve" xmlns:serif="http://www.serif.com/" style="fill-rule:evenodd;clip-rule:evenodd;stroke-linejoin:round;stroke-miterlimit:2;">
    <g transform="matrix(1,0,0,1,-339.693262,-291.095885)">
        <g id="VestGo">
            <path d="M461.497,628.206C461.497,628.206 460.137,626.645 460.017,624.843C459.897,623.042 461.497,621.24 461.497,621.24C461.497,621.24 466.742,614.995 468.003,615.055C469.264,615.115 470.405,615.055 470.405,615.055C470.405,615.055 471.726,615.536 472.927,617.337C474.128,619.139 474.109,619.139 474.109,619.139C474.109,619.139 474.21,620.94 474.109,622.201C474.008,623.462 471.005,625.864 471.005,625.864L466.922,630.007C466.922,630.007 463.92,630.728 463.139,630.007C462.359,629.287 461.497,628.206 461.497,628.206Z" style="fill:#7AE9C9;"/>
            <g transform="matrix(1,0,0,1,20.844857,-20.386729)">
                <path d="M461.497,628.206C461.497,628.206 460.137,626.645 460.017,624.843C459.897,623.042 461.497,621.24 461.497,621.24C461.497,621.24 466.742,614.995 468.003,615.055C469.264,615.115 470.405,615.055 470.405,615.055C470.405,615.055 471.726,615.536 472.927,617.337C474.128,619.139 474.109,619.139 474.109,619.139C474.109,619.139 474.21,620.94 474.109,622.201C474.008,623.462 471.005,625.864 471.005,625.864L466.922,630.007C466.922,630.007 463.92,630.728 463.139,630.007C462.359,629.287 461.497,628.206 461.497,628.206Z" style="fill:#7AE9C9;"/>
            </g>
            <g transform="matrix(1,0,0,1,39.8572,-39.353753)">
                <path d="M461.497,628.206C461.497,628.206 460.137,626.645 460.017,624.843C459.897,623.042 461.497,621.24 461.497,621.24L468.003,614.399L474.528,607.954C474.528,607.954 480.044,606.942 481.245,608.744C482.446,610.545 481.439,614.328 481.439,614.328L474.109,622.201L471.005,625.864L466.922,630.007C466.922,630.007 463.92,630.728 463.139,630.007C462.359,629.287 461.497,628.206 461.497,628.206Z" style="fill:#7AE9C9;"/>
            </g>
            <path d="M474.957,645.258C474.957,645.258 549.186,567.502 566.336,546.624C572.007,539.72 580.094,532.515 577.857,519.988C575.62,507.461 567.567,493.592 567.567,493.592L584.121,462.274L661.967,462.722L538.039,690.892C538.039,690.892 530.881,703.933 519.696,704.381C508.511,704.828 503.143,697.67 503.143,697.67L474.109,646.188L474.957,645.258Z" style="fill:#0D4D55;"/>
            <path d="M394.049,648.009C394.049,648.009 390.086,645.007 390.026,643.025C389.965,641.043 393.929,638.041 393.929,638.041L431.999,638.101C431.999,638.101 432.96,637.621 431.999,636.84C431.038,636.059 417.107,620.987 417.107,620.987L417.107,616.003L421.01,613.181L423.893,613.121L449.953,641.164L450.013,643.986L425.033,670.947L420.23,671.067L417.107,666.924L417.047,665.063L431.098,650.111L431.098,648.009L394.049,648.009Z" style="fill:#0D4D55;"/>
            <path d="M442.532,588.025L430.003,567.004L430.003,565.005L455.06,529.073L489.917,529.073L492.953,533.07L492.991,535.029L442.532,588.025Z" style="fill:#044E56;"/>
            <path d="M465.095,514.975L482.004,515.006L474.109,503.015L465.095,514.975Z" style="fill:#04444D;"/>
            <path d="M418.504,554.604C418.504,554.604 475.027,478.796 486.981,455.789C498.025,434.533 498.205,414.916 498.205,414.916L497.976,406.899C497.976,406.899 489.351,334.652 420.019,335.202C350.687,335.751 339.849,405.411 339.849,405.411L339.849,414.793C339.849,414.793 336.624,436.52 359.494,469.036C382.364,501.551 418.504,554.604 418.504,554.604Z" style="fill:#054F58;"/>
            <path d="M385.206,414.345C385.313,403.227 393.863,380.622 418.949,380.568C444.387,380.513 452.088,402.481 451.98,413.599C451.873,424.717 445.032,447.519 418.304,447.276C393.57,447.051 385.098,425.463 385.206,414.345Z" style="fill:white;"/>
            <path d="M513.133,415.977C513.133,415.977 580.093,416.071 595.471,416.071C601.868,416.071 606.475,403.013 604.185,401.059C603.046,400.087 593.526,394.006 593.526,394.006L518.951,347.86L519.138,337.352C519.138,337.352 536.683,331.628 536.871,318.962C537.059,306.296 535.933,306.108 535.933,306.108C535.933,306.108 531.242,291.096 513.884,291.096C496.526,291.096 492.991,303.293 492.991,303.293C492.991,303.293 490.362,309.428 490.24,312.019C490.117,314.647 488.645,318.774 494.556,318.774C500.467,318.774 499.434,315.489 499.57,313.66C499.731,311.498 500.111,310.334 500.574,308.916C501.392,306.413 504.545,301.334 509.518,301.428C514.491,301.522 515.978,301.018 519.047,301.714C522.694,302.541 527.27,305.849 527.364,311.291C527.458,316.733 527.477,315.869 527.301,318.049C526.984,321.968 522.688,329.232 512,329.045L509.925,329.079L509.937,348.055L496.126,357.002L496.006,358.803L500.93,365.889L513.18,357.062L516.963,357.002L592.023,404.8L592.023,406.121L513.06,406.121L513.133,415.977Z" style="fill:#0A4F57;"/>
            <path d="M590.972,449.18L669.403,449.18C669.403,449.18 698.781,398.001 704.833,386.176C705.812,384.264 705.995,381.398 705.72,378.232C705.437,374.977 703.855,369.722 696.964,367.083C690.074,364.444 645.068,367.083 645.068,367.083C645.068,367.083 637.298,366.936 633.046,374.12C628.795,381.303 590.972,449.18 590.972,449.18Z" style="fill:#73ECC5;"/>
            <path d="M528.592,560.304C529.237,561.524 529.647,562.533 532.696,561.594C535.746,560.656 540.202,555.848 540.202,555.848C540.202,555.848 551.813,542.126 553.807,538.021C555.801,533.916 555.407,533.449 555.754,530.843C556.242,527.169 556.16,517.01 556.162,512C556.165,505.553 552.175,495.744 545.382,491.122C538.021,486.116 523.434,481.937 512,481.961C487.866,482.01 487.927,482.019 487.927,482.019L483.087,489.936C483.087,489.936 495.77,489.259 508.52,489.259C531.062,489.259 548.373,497.165 548.373,512C548.373,525.253 548.284,525.814 548.205,530.706C548.09,537.86 533.321,549.628 528.826,554.276C527.411,555.739 527.946,559.085 528.592,560.304Z" style="fill:#7AE9C9;"/>
        </g>
    </g>
</svg>
